<svg width="113" height="95" viewBox="0 0 113 95" fill="none" xmlns="http://www.w3.org/2000/svg">
<rect width="113" height="95" fill="#F5F5F5"/>
<mask id="mask0_0_1" style="mask-type:alpha" maskUnits="userSpaceOnUse" x="0" y="0" width="113" height="95">
<rect width="113" height="95" fill="#D9D9D9"/>
</mask>
<g mask="url(#mask0_0_1)">
<path d="M110.5 105.392C110.5 128.129 86.9063 147.5 56.5 147.5C26.0937 147.5 2.5 128.129 2.5 105.392C2.5 82.6555 26.0937 63.2849 56.5 63.2849C86.9063 63.2849 110.5 82.6555 110.5 105.392Z" fill="#1D6293" stroke="black" stroke-width="5"/>
<path d="M88.5 30.5C88.5 45.6833 74.4716 58.5 56.5 58.5C38.5284 58.5 24.5 45.6833 24.5 30.5C24.5 15.3167 38.5284 2.5 56.5 2.5C74.4716 2.5 88.5 15.3167 88.5 30.5Z" fill="#1D6293" stroke="black" stroke-width="5"/>
</g>
</svg>
